# xmcd
#
# Track frame offsets:
# 150
# 32467
# 51771
# 77302
# 103385
# 134084
# 159216
# 180751
# 204666
# 222141
# 244561
# 257773
#
# Disc length: 3850 seconds
#
#
# Revision: 0
# Processed by: cddbd v1.5.2PL0 Copyright (c) Steve Scherf et al.
# Submitted via: FreeRIP 2.96 
#
DISCID=960f080c
DTITLE=RONALDO BEZERRA - AO VIVO
DYEAR=1900
DGENRE=POP GOSPEL
TTITLE0=EU SOU LIVRE
TTITLE1=TUDO PARA TI
TTITLE2=EU TE LOUVAREI MEU BOM JESUS
TTITLE3=EU TE BENDIREI
TTITLE4=TU ÉS SANTO
TTITLE5=TU SONDAS
TTITLE6=TE ACOLHEREI
TTITLE7=EU CONFIO EM TI
TTITLE8=AMIGO ETERNO
TTITLE9=LOUVE AO SENHOR
TTITLE10=QUERO ME MOVER
TTITLE11=ROMANOS 16:19 << PREG LUO
EXTD=
EXTT0=
EXTT1=
EXTT2=
EXTT3=
EXTT4=
EXTT5=
EXTT6=
EXTT7=
EXTT8=
EXTT9=
EXTT10=
EXTT11=
PLAYORDER=
